<?xml version="1.0" encoding="iso-8859-1"?>
<!-- Generator: Adobe Illustrator 16.0.0, SVG Export Plug-In . SVG Version: 6.00 Build 0)  -->
<!DOCTYPE svg PUBLIC "-//W3C//DTD SVG 1.1//EN" "http://www.w3.org/Graphics/SVG/1.1/DTD/svg11.dtd">
<svg version="1.1" id="Capa_1" xmlns="http://www.w3.org/2000/svg" xmlns:xlink="http://www.w3.org/1999/xlink" x="0px" y="0px"
	 width="408.816px" height="408.816px" viewBox="0 0 408.816 408.816" style="enable-background:new 0 0 408.816 408.816;"
	 xml:space="preserve">
<g>
	<path d="M365.552,217.26c-41.004-54.468-80.784-109.548-122.4-164.016C230.911,37.332,216.835,1.224,195.416,0
		c-1.224,0-1.836,1.224-1.836,1.836c0,0.612,0.612,1.224,0.612,1.836c0,0.612-0.612,0.612-0.612,1.224c-0.612,0-1.224,0-1.224,0.612
		c-33.048,18.36-55.692,61.2-74.664,92.412c-26.316,42.84-52.632,86.292-75.888,130.356c-0.612,1.836-0.612,3.06,0,4.284
		c-0.612,3.06,0.612,6.731,4.896,6.731c23.868,1.836,54.468,7.344,79.56,2.448c-4.896,10.404-4.896,23.256-7.344,33.66
		c-10.404,38.556-29.376,73.439-36.108,113.22c-0.612,1.836,0,3.672,0.612,4.896c-3.06,3.06-1.836,8.567,3.672,9.18
		c46.512,3.06,93.024,5.508,139.536,5.508c24.48,0,86.292,5.508,104.652-16.523c3.061-3.673,1.224-9.181-3.06-9.792
		c0-0.612-0.612-1.225-0.612-1.837c-25.092-45.899-53.244-93.636-63.648-145.655c20.196,1.836,40.393,1.836,60.589,1.836
		c9.792,0,29.987,1.836,36.107-7.956C364.939,228.276,370.447,222.769,365.552,217.26z M317.815,220.932
		c-19.584,0.612-39.168-1.224-58.752,0.612c-3.672,0-5.508,2.448-6.12,4.896c-1.836,0.611-3.06,2.447-3.06,4.896
		c3.06,53.856,33.659,105.876,59.363,152.389c-8.567,1.836-16.523,4.283-24.479,5.508c-22.032,2.447-44.676,3.06-67.32,3.06
		c-39.78,0.612-80.172-1.836-119.952,0c9.18-38.556,23.256-74.664,36.72-111.996c3.672-10.403,7.344-28.151,6.732-38.556
		c0-0.612,0-1.224,0-1.836s0-0.612,0-1.225c0.612-0.611,1.836-0.611,2.448-1.224c6.12-3.06,2.448-11.628-3.06-12.24
		c-15.3-0.611-31.212,2.448-46.512,3.061c-12.24,0.611-24.48,0.611-37.332,0.611c25.092-28.764,42.84-65.483,61.812-98.532
		c23.868-41.616,50.796-76.5,82.008-111.996c1.224,1.224,1.836,2.448,2.448,3.672c8.568,13.464,17.136,26.928,26.928,39.78
		c39.168,52.02,77.724,104.652,116.892,156.672C336.787,218.484,325.771,220.932,317.815,220.932z"/>
</g>
<g>
</g>
<g>
</g>
<g>
</g>
<g>
</g>
<g>
</g>
<g>
</g>
<g>
</g>
<g>
</g>
<g>
</g>
<g>
</g>
<g>
</g>
<g>
</g>
<g>
</g>
<g>
</g>
<g>
</g>
</svg>
