<?xml version="1.0" standalone="no"?>
<!DOCTYPE svg PUBLIC "-//W3C//DTD SVG 20010904//EN"
 "http://www.w3.org/TR/2001/REC-SVG-20010904/DTD/svg10.dtd">
<svg version="1.0" xmlns="http://www.w3.org/2000/svg"
 width="144.000000pt" height="91.000000pt" viewBox="0 0 144.000000 91.000000"
 preserveAspectRatio="xMidYMid meet">
<metadata>
Created by potrace 1.14, written by Peter Selinger 2001-2017
</metadata>
<g transform="translate(0.000000,91.000000) scale(0.100000,-0.100000)"
fill="white" stroke="none">
<path d="M1317 879 c-31 -16 -57 -35 -57 -41 0 -27 -58 -91 -156 -173 -57 -48
-104 -92 -104 -96 0 -5 -7 -9 -15 -9 -19 0 -19 29 -1 56 16 22 11 37 -17 47
-30 11 -65 -14 -94 -69 -24 -47 -36 -57 -100 -89 -78 -39 -113 -76 -113 -122
0 -21 -9 -34 -35 -51 -19 -12 -35 -19 -35 -15 0 5 6 45 14 91 12 74 12 84 -2
89 -23 10 -44 -10 -57 -52 -19 -65 -46 -115 -63 -115 -15 0 -14 28 4 133 6 35
5 37 -19 37 -32 0 -42 -17 -56 -94 -11 -61 -33 -96 -59 -96 -12 0 -13 9 -6 53
4 28 8 70 8 92 1 37 -1 40 -28 43 -31 4 -66 -22 -97 -72 l-17 -29 1 49 c2 47
1 49 -27 52 -32 4 -67 -24 -97 -78 l-20 -35 5 31 c3 18 8 44 12 59 6 25 5 26
-22 23 -37 -4 -52 -34 -60 -124 -7 -85 6 -127 38 -122 17 2 27 16 40 53 23 64
49 115 59 115 4 0 5 -33 2 -73 -5 -60 -3 -76 11 -90 26 -25 42 -11 66 57 23
64 54 115 64 105 3 -3 1 -31 -5 -63 -16 -78 -4 -106 49 -106 20 0 48 7 61 16
22 16 24 16 33 0 15 -26 63 -20 88 12 19 25 20 25 15 4 -4 -12 -35 -50 -70
-85 -76 -75 -97 -126 -66 -167 28 -38 65 -38 105 2 31 31 49 74 75 173 9 32
21 47 61 73 27 17 52 32 55 32 3 0 22 -19 43 -42 99 -110 207 -129 240 -41 5
15 17 49 26 75 14 38 24 49 55 61 46 19 64 39 59 69 -3 20 -8 23 -45 20 -24
-1 -43 2 -43 6 0 5 47 59 104 121 58 61 117 127 132 146 35 46 61 60 79 45 12
-10 18 -5 32 24 9 20 24 36 33 36 21 0 40 20 40 42 0 10 -1 18 -3 18 -1 0 -16
4 -32 9 -25 7 -42 3 -88 -20z m101 -12 c3 -12 -3 -17 -21 -17 -18 0 -28 -8
-36 -29 -9 -20 -19 -28 -37 -28 -18 0 -62 -40 -177 -158 -83 -87 -153 -166
-155 -176 -4 -23 33 -43 65 -34 37 9 25 -16 -18 -36 -44 -22 -64 -45 -79 -94
-20 -65 -37 -85 -71 -85 -43 0 -77 21 -136 83 -89 94 -82 121 49 193 63 35 74
45 94 90 12 28 30 54 40 58 23 9 30 0 14 -19 -16 -20 -5 -62 21 -75 18 -10 33
1 136 97 64 59 129 128 144 152 19 30 46 53 81 72 59 30 81 32 86 6z"/>
</g>
</svg>
